<?xml version="1.0" encoding="UTF-8"?>
<svg width="220" height="250" version="1.1" viewBox="0 0 220 250" xmlns="http://www.w3.org/2000/svg">
 <g stroke-width=".38">
  <path d="m154 93.8c2.38 0 4.31 1.93 4.31 4.31 0 2.38-1.93 4.31-4.31 4.31-2.38 0-4.31-1.93-4.31-4.31 0-2.38 1.93-4.31 4.31-4.31zm0-1.27c-3.08 0-5.58 2.5-5.58 5.58 0 3.08 2.5 5.58 5.58 5.58 3.08 0 5.58-2.5 5.58-5.58 0-3.08-2.5-5.58-5.58-5.58" fill="#f8c552"/>
  <path d="m151 105c0.204-2.01 1.41-3.55 2.87-3.55 1.46 0 2.66 1.54 2.87 3.55h-5.74" fill="#fbd885"/>
  <path d="m154 102c-1.16 0.172-1.92 1.07-2.28 3.54h0.527c0.0433-1.6 0.603-3.15 1.75-3.54" fill="#f2bb42"/>
  <path d="m154 102c1.67 0.4 2.28 1.81 2.52 3.55h-2.32c-0.0528-1.2-0.126-2.4-0.198-3.55" fill="#fdedc1"/>
  <path d="m171 187c-6.71 6.79-7.59 16.8-4.74 25.1-14 0.481-28.2 2.81-42.4 2.58-11.2-0.183-22.4-2.96-33.5-2.58 26.4-2.58 36.8-20.1 27.5-24.9 16.8-0.281 36.4 0.0194 53.2-0.262" fill="#f8c552"/>
  <path d="m171 187c-2.15 2.18-3.71 4.68-4.73 7.36-17.1 11.1-30.9 6.35-45.1-2.42-0.192-1.98-1.29-3.64-3.35-4.67 16.8-0.281 36.4 0.0194 53.2-0.262" fill="#e4b03f"/>
  <path d="m44.1 144c-3.14 3.43-5.76 9.01-7.55 14.3 3.71-0.573 7.42-1.15 11.1-1.72-0.199-3.52-0.398-7.04-0.597-10.6-0.996-0.681-1.99-1.36-2.99-2.04" fill="#916f2f"/>
  <path d="m43.2 153c1.67-3.91 1.19-8.02 0.934-9.72 52.9-16.3 82.3 18.3 92.1-6.33l4.54-11.5c-0.0623-0.744-0.0949-1.5-0.0949-2.27 0-10.5 5.95-19 13.3-19 7.34 0 13.3 8.52 13.3 19 0 0.893-0.0445 1.77-0.127 2.63l1.62 21.6c0.527 7.04 5.6 11.1 10.1 11.4 13.4 0.854 34-11.4 32.3-26.8 0.661 3.13 1.32 6.26 1.98 9.39-5.83 8.01-11.7 16-17.5 24-15.5 6.31-31.1 12.6-46.6 18.9-21.1-10.7-42.3-21.4-63.4-32.1-14.4 0.474-27.9 0.349-42.3 0.823" fill="#f8c552"/>
  <path d="m132 194c-1.16 12.2-12.1 15.6-24.7 17.4 10.1 0.434 20.2 0.869 30.3 1.3 2.56-5.27 5.11-10.5 7.67-15.8-4.42-0.973-8.83-1.95-13.2-2.92" fill="#fdeaba"/>
  <path d="m132 194c-0.0858 0.909-0.227 1.77-0.418 2.58 4 1.75 8.04 2.96 12.2 3.36l1.47-3.02c-4.42-0.973-8.83-1.95-13.2-2.92" fill="#f0d9a2"/>
  <path d="m139 197c-0.518 9.11-6.19 13.8-15.7 15.2h33.7c-1.56-3.23-1.92-12.4 1.43-17.1-4.74 0.0452-14.6 1.77-19.4 1.81" fill="#d8a22f"/>
  <path d="m139 197c-0.057 1.01-0.178 1.96-0.358 2.85 5.7 1.44 11.6 1.53 17.8-0.461 0.413-1.58 1.02-3.04 1.87-4.21-4.74 0.0452-14.6 1.77-19.4 1.81" fill="#c89632"/>
  <path d="m193 90.7c-1.13 0-2.04 0.914-2.04 2.04s0.915 2.04 2.04 2.04c1.13 0 2.04-0.914 2.04-2.04s-0.914-2.04-2.04-2.04zm-14.9 73.7c36.4-12.2 45.3-29.9 16.3-61.8-16.1-17.7 11.4-25.5 17.1-9.59-8.17-8-17.7 2.07-12.3 8.5 31.2 37.4 19.6 59.4-19.9 78-55.4 57.2-74.5-43.7-149-14.7 43.4-46.4 97.3 9.6 148-0.398" fill="#f8c552"/>
  <path d="m179 179c-55.4 57.2-74.5-43.7-149-14.7 74.5-34.9 85.9 59.8 149 14.7" fill="#fcdc92"/>
  <path d="m178 164c33.2-11.2 43.6-26.8 23.1-53.7l4e-3 -3.8e-4c25.6 27.5 10.8 45.4-20.5 59.4-57 30.5-92.6-46-151-5.28 43.4-46.4 97.3 9.6 148-0.398" fill="#d8a22f"/>
  <path d="m153 105c-5.97 0.879-9.58 5.94-11 20.5-9.83 47-33.6 5.56-86.9 16.9 54.4-8.31 78.5 33.3 89.9-16.9-0.861-8.66 1.58-18.4 7.89-20.5" fill="#d8a22f"/>
  <path d="m154 105c24.6 5.88-0.844 59.3 27.1 56.7-11.4 2.97-20.9 2.37-28.6 1.1 4.05-15.7 2.73-38.2 1.5-57.8" fill="#f9d071"/>
  <path d="m53.5 149c34.7-15.8 94.3 29.7 134 12-35.9 20.6-94.2-24.1-134-12" fill="#fef3d1"/>
  <path d="m168 124h-29c-0.85 0-1.54 0.694-1.54 1.54 0 0.849 0.694 1.54 1.54 1.54h29c0.849 0 1.54-0.694 1.54-1.54 0-0.85-0.695-1.54-1.54-1.54" fill="#d8a22f"/>
  <path d="m168 124h-29c-0.85 0-1.54 0.694-1.54 1.54h32.1c0-0.85-0.695-1.54-1.54-1.54" fill="#fad57e"/>
  <path d="m140 129 0.789-1.99h26.7l0.149 1.99h-27.7" fill="#eebc4d"/>
  <path d="m142 127c-0.155 0.684-0.313 1.35-0.473 1.99h3.03c0.172-0.647 0.34-1.31 0.506-1.99h-3.06" fill="#e3af38"/>
  <path d="m166 127c0.0334 0.66 0.0607 1.32 0.0842 1.99h-11c-0.0145-0.663-0.0307-1.33-0.0493-1.99h10.9" fill="#f2c764"/>
  <path d="m168 212h-93.1c-1.42 0-2.58 1.16-2.58 2.58 0 1.42 1.16 2.58 2.58 2.58h93.1c1.42 0 2.58-1.16 2.58-2.58 0-1.42-1.16-2.58-2.58-2.58" fill="#fcdc92"/>
  <path d="m72.1 214c0 1.42 1.16 2.58 2.58 2.58h93.1c1.42 0 2.58-1.16 2.58-2.58h-98.3" fill="#d8a22f"/>
 </g>
 <path d="m43.2 153c-16.5-8.75-33-17.5-32.4-26.6 0.621-9.08 18.4-18.5 17.7-30.1-0.675-11.6-19.8-25.5-19.5-36 0.24-10.5 19.8-17.7 24.2-27 4.33-9.22-6.6-20.5-17.5-31.7 14.2 2.11 28.4 4.22 37.9 9.28 9.54 5.07 14.4 13.1 9.06 21.7-5.37 8.63-21 17.9-20.6 29.2s16.8 24.8 16.7 35.6c-0.108 10.8-16.7 19-22.1 27.8-5.32 8.84 0.667 18.3 6.65 27.9" fill="#bf6d9d"/>
</svg>
